<?xml version="1.0" encoding="UTF-8" standalone="no"?>
<!DOCTYPE svg PUBLIC "-//W3C//DTD SVG 1.1//EN" "http://www.w3.org/Graphics/SVG/1.1/DTD/svg11.dtd">
<svg width="100%" height="100%" viewBox="0 0 700 700" version="1.1" xmlns="http://www.w3.org/2000/svg" xmlns:xlink="http://www.w3.org/1999/xlink" xml:space="preserve" xmlns:serif="http://www.serif.com/" style="fill-rule:evenodd;clip-rule:evenodd;stroke-linejoin:round;stroke-miterlimit:2;">
    <g transform="matrix(0.750334,0,0,0.750334,87.5948,139.485)">
        <path d="M545.44,113.68C521.362,89.602 490.561,78.961 459.202,78.961C420.561,78.961 380.804,95.199 351.122,124.32C351.122,124.32 350.563,124.879 350.001,124.879C349.442,124.879 349.442,124.879 348.88,124.32C322.001,99.121 287.278,73.922 252.001,73.922C216.72,73.922 181.442,87.363 154.56,114.242C100.798,168.004 100.798,255.922 154.56,309.682L338.24,482.722C341.599,485.523 345.521,487.203 350.002,487.203C353.924,487.203 358.4,485.523 361.764,482.722L545.444,309.682C572.319,282.237 585.198,246.397 585.198,211.12C585.198,175.839 572.319,140.558 545.44,113.679L545.44,113.68Z" style="fill:rgb(251,57,88);fill-rule:nonzero;"/>
    </g>
</svg>
