<?xml version="1.0" encoding="UTF-8" standalone="no"?>
<!DOCTYPE svg PUBLIC "-//W3C//DTD SVG 1.1//EN" "http://www.w3.org/Graphics/SVG/1.1/DTD/svg11.dtd">
<svg width="100%" height="100%" viewBox="0 0 700 700" version="1.1" xmlns="http://www.w3.org/2000/svg" xmlns:xlink="http://www.w3.org/1999/xlink" xml:space="preserve" xmlns:serif="http://www.serif.com/" style="fill-rule:evenodd;clip-rule:evenodd;stroke-linejoin:round;stroke-miterlimit:2;">
    <g transform="matrix(1,0,0,1,-12.2477,61.0203)">
        <path d="M424.04,137.7C400.868,139.802 379.407,150.95 362.239,169.52C345.075,150.95 323.614,139.801 300.438,137.7C273.469,135.255 246.442,145.446 226.239,165.649C186.173,205.715 186.173,270.909 226.239,310.979L351.779,436.519C354.513,439.253 358.095,440.617 361.681,440.617C361.873,440.617 362.056,440.574 362.248,440.562C362.439,440.566 362.623,440.617 362.814,440.617C366.4,440.617 369.982,439.25 372.716,436.519L498.256,310.979C538.322,270.913 538.322,205.719 498.256,165.649C478.041,145.45 450.998,135.274 424.045,137.7L424.04,137.7ZM478.442,291.19L362.242,407.39L246.042,291.19C216.89,262.038 216.89,214.604 246.042,185.45C260.351,171.138 279.249,163.884 297.909,165.587C317.905,167.4 336.46,179.314 350.155,199.138C352.987,203.243 357.616,205.325 362.253,205.134C366.878,205.306 371.487,203.224 374.315,199.138C388.014,179.314 406.565,167.404 426.561,165.587C445.186,163.907 464.116,171.138 478.432,185.45C507.588,214.595 507.588,262.028 478.44,291.19L478.442,291.19Z" style="fill:rgb(251,57,88);fill-rule:nonzero;"/>
    </g>
</svg>
