<?xml version="1.0" encoding="UTF-8" standalone="no"?>
<!DOCTYPE svg PUBLIC "-//W3C//DTD SVG 1.1//EN" "http://www.w3.org/Graphics/SVG/1.1/DTD/svg11.dtd">
<svg width="100%" height="100%" viewBox="0 0 700 700" version="1.1" xmlns="http://www.w3.org/2000/svg" xmlns:xlink="http://www.w3.org/1999/xlink" xml:space="preserve" xmlns:serif="http://www.serif.com/" style="fill-rule:evenodd;clip-rule:evenodd;stroke-linejoin:round;stroke-miterlimit:2;">
    <g>
        <g transform="matrix(0.563641,0,0,0.563641,152.726,192.184)">
            <path d="M572.71,280C566.808,280.008 561.144,282.356 556.972,286.535C552.796,290.715 550.453,296.379 550.453,302.285L550.453,435.915C550.433,447.724 545.734,459.04 537.387,467.392C529.035,475.74 517.718,480.439 505.909,480.458L194.08,480.458C182.271,480.439 170.955,475.739 162.603,467.392C154.255,459.041 149.556,447.724 149.537,435.915L149.537,124.085C149.556,112.276 154.255,100.96 162.603,92.608C170.954,84.26 182.271,79.561 194.08,79.542L327.71,79.542C333.745,79.738 339.597,77.48 343.933,73.28C348.269,69.081 350.718,63.304 350.718,57.272C350.718,51.237 348.268,45.46 343.933,41.26C339.597,37.06 333.745,34.803 327.71,34.999L194.08,34.999C170.458,35.018 147.809,44.409 131.106,61.112C114.403,77.815 105.012,100.464 104.993,124.085L104.993,435.915C105.013,459.536 114.404,482.185 131.106,498.888C147.809,515.591 170.458,524.982 194.08,525.001L505.909,525.001C529.531,524.981 552.18,515.591 568.882,498.888C585.585,482.185 594.977,459.536 594.996,435.915L594.996,302.285C594.988,296.375 592.64,290.711 588.46,286.535C584.285,282.355 578.621,280.008 572.71,280L572.71,280Z" style="fill:white;fill-rule:nonzero;"/>
        </g>
        <g transform="matrix(0.563641,0,0,0.563641,152.726,192.184)">
            <path d="M589.17,42.535C588.889,42.23 588.772,41.812 588.471,41.531C588.166,41.25 587.772,41.109 587.467,40.832C585.662,39.14 583.588,37.758 581.33,36.75C578.607,35.594 575.678,34.996 572.717,35L439.087,35C431.302,35.254 424.212,39.551 420.392,46.34C416.572,53.125 416.572,61.418 420.392,68.203C424.212,74.992 431.302,79.293 439.087,79.543L518.958,79.543L356.538,241.993C352.257,246.145 349.819,251.841 349.772,257.805C349.725,263.766 352.077,269.5 356.292,273.715C360.507,277.93 366.241,280.281 372.202,280.234C378.167,280.188 383.862,277.75 388.014,273.469L550.464,111.049L550.464,190.92C550.714,198.705 555.015,205.795 561.804,209.615C568.589,213.435 576.882,213.435 583.667,209.615C590.456,205.794 594.753,198.705 595.007,190.92L595.007,57.29C595.007,54.333 594.421,51.407 593.28,48.676C592.253,46.423 590.866,44.348 589.175,42.54L589.17,42.535Z" style="fill:white;fill-rule:nonzero;"/>
        </g>
    </g>
</svg>
